<mxfile host="app.diagrams.net" modified="2023-04-18T06:45:37.272Z" agent="Mozilla/5.0 (Windows NT 10.0; Win64; x64) AppleWebKit/537.36 (KHTML, like Gecko) Chrome/112.0.0.0 Safari/537.36" etag="dQPs8auHt2egvpefOgnI" version="21.1.8" type="google">
  <diagram id="C5RBs43oDa-KdzZeNtuy" name="Page-1">
    <mxGraphModel grid="1" page="1" gridSize="10" guides="1" tooltips="1" connect="1" arrows="1" fold="1" pageScale="1" pageWidth="827" pageHeight="1169" math="0" shadow="0">
      <root>
        <mxCell id="WIyWlLk6GJQsqaUBKTNV-0" />
        <mxCell id="WIyWlLk6GJQsqaUBKTNV-1" parent="WIyWlLk6GJQsqaUBKTNV-0" />
        <mxCell id="V8zk7Uhm2Ry-OCBPCCSQ-3" value="" style="edgeStyle=orthogonalEdgeStyle;rounded=0;orthogonalLoop=1;jettySize=auto;html=1;entryX=0;entryY=0.5;entryDx=0;entryDy=0;" edge="1" parent="WIyWlLk6GJQsqaUBKTNV-1" source="WIyWlLk6GJQsqaUBKTNV-3" target="V8zk7Uhm2Ry-OCBPCCSQ-4">
          <mxGeometry relative="1" as="geometry">
            <mxPoint x="610" y="159.9999999999999" as="targetPoint" />
            <Array as="points">
              <mxPoint x="790" y="80" />
              <mxPoint x="790" y="80" />
            </Array>
          </mxGeometry>
        </mxCell>
        <mxCell id="WIyWlLk6GJQsqaUBKTNV-3" value="Get data from dataset" style="rounded=1;whiteSpace=wrap;html=1;fontSize=12;glass=0;strokeWidth=1;shadow=0;fillColor=#fff2cc;strokeColor=#d6b656;" vertex="1" parent="WIyWlLk6GJQsqaUBKTNV-1">
          <mxGeometry x="525" y="50" width="170" height="60" as="geometry" />
        </mxCell>
        <mxCell id="WIyWlLk6GJQsqaUBKTNV-12" value="Two-opt Optimization" style="rounded=1;whiteSpace=wrap;html=1;fontSize=12;glass=0;strokeWidth=1;shadow=0;fillColor=#d5e8d4;strokeColor=#82b366;" vertex="1" parent="WIyWlLk6GJQsqaUBKTNV-1">
          <mxGeometry x="70" y="370" width="120" height="60" as="geometry" />
        </mxCell>
        <mxCell id="V8zk7Uhm2Ry-OCBPCCSQ-7" value="" style="edgeStyle=orthogonalEdgeStyle;rounded=0;orthogonalLoop=1;jettySize=auto;html=1;" edge="1" parent="WIyWlLk6GJQsqaUBKTNV-1" source="V8zk7Uhm2Ry-OCBPCCSQ-4" target="V8zk7Uhm2Ry-OCBPCCSQ-6">
          <mxGeometry relative="1" as="geometry" />
        </mxCell>
        <mxCell id="V8zk7Uhm2Ry-OCBPCCSQ-4" value="Find the minimum spanning tree" style="whiteSpace=wrap;html=1;rounded=1;glass=0;strokeWidth=1;shadow=0;fillColor=#fff2cc;strokeColor=#d6b656;" vertex="1" parent="WIyWlLk6GJQsqaUBKTNV-1">
          <mxGeometry x="870" y="50" width="120" height="60" as="geometry" />
        </mxCell>
        <mxCell id="V8zk7Uhm2Ry-OCBPCCSQ-9" value="" style="edgeStyle=orthogonalEdgeStyle;rounded=0;orthogonalLoop=1;jettySize=auto;html=1;" edge="1" parent="WIyWlLk6GJQsqaUBKTNV-1" source="V8zk7Uhm2Ry-OCBPCCSQ-6" target="V8zk7Uhm2Ry-OCBPCCSQ-8">
          <mxGeometry relative="1" as="geometry" />
        </mxCell>
        <mxCell id="V8zk7Uhm2Ry-OCBPCCSQ-6" value="Find the odd degree vertices" style="whiteSpace=wrap;html=1;rounded=1;glass=0;strokeWidth=1;shadow=0;fillColor=#fff2cc;strokeColor=#d6b656;" vertex="1" parent="WIyWlLk6GJQsqaUBKTNV-1">
          <mxGeometry x="1080" y="50" width="120" height="60" as="geometry" />
        </mxCell>
        <mxCell id="V8zk7Uhm2Ry-OCBPCCSQ-11" value="" style="edgeStyle=orthogonalEdgeStyle;rounded=0;orthogonalLoop=1;jettySize=auto;html=1;" edge="1" parent="WIyWlLk6GJQsqaUBKTNV-1" source="V8zk7Uhm2Ry-OCBPCCSQ-8" target="V8zk7Uhm2Ry-OCBPCCSQ-10">
          <mxGeometry relative="1" as="geometry" />
        </mxCell>
        <mxCell id="V8zk7Uhm2Ry-OCBPCCSQ-8" value="Find minimum weight perfect matching" style="whiteSpace=wrap;html=1;rounded=1;glass=0;strokeWidth=1;shadow=0;fillColor=#fff2cc;strokeColor=#d6b656;" vertex="1" parent="WIyWlLk6GJQsqaUBKTNV-1">
          <mxGeometry x="1310" y="50" width="120" height="60" as="geometry" />
        </mxCell>
        <mxCell id="V8zk7Uhm2Ry-OCBPCCSQ-13" value="" style="edgeStyle=orthogonalEdgeStyle;rounded=0;orthogonalLoop=1;jettySize=auto;html=1;" edge="1" parent="WIyWlLk6GJQsqaUBKTNV-1" source="V8zk7Uhm2Ry-OCBPCCSQ-10" target="V8zk7Uhm2Ry-OCBPCCSQ-12">
          <mxGeometry relative="1" as="geometry" />
        </mxCell>
        <mxCell id="V8zk7Uhm2Ry-OCBPCCSQ-10" value="Combine MST and Matching" style="whiteSpace=wrap;html=1;rounded=1;glass=0;strokeWidth=1;shadow=0;fillColor=#fff2cc;strokeColor=#d6b656;" vertex="1" parent="WIyWlLk6GJQsqaUBKTNV-1">
          <mxGeometry x="1310" y="190" width="120" height="60" as="geometry" />
        </mxCell>
        <mxCell id="V8zk7Uhm2Ry-OCBPCCSQ-15" value="" style="edgeStyle=orthogonalEdgeStyle;rounded=0;orthogonalLoop=1;jettySize=auto;html=1;" edge="1" parent="WIyWlLk6GJQsqaUBKTNV-1" source="V8zk7Uhm2Ry-OCBPCCSQ-12" target="V8zk7Uhm2Ry-OCBPCCSQ-14">
          <mxGeometry relative="1" as="geometry" />
        </mxCell>
        <mxCell id="V8zk7Uhm2Ry-OCBPCCSQ-12" value="Find euler tour" style="whiteSpace=wrap;html=1;rounded=1;glass=0;strokeWidth=1;shadow=0;fillColor=#fff2cc;strokeColor=#d6b656;" vertex="1" parent="WIyWlLk6GJQsqaUBKTNV-1">
          <mxGeometry x="1080" y="190" width="120" height="60" as="geometry" />
        </mxCell>
        <mxCell id="V8zk7Uhm2Ry-OCBPCCSQ-18" value="" style="edgeStyle=orthogonalEdgeStyle;rounded=0;orthogonalLoop=1;jettySize=auto;html=1;" edge="1" parent="WIyWlLk6GJQsqaUBKTNV-1" source="V8zk7Uhm2Ry-OCBPCCSQ-14" target="V8zk7Uhm2Ry-OCBPCCSQ-17">
          <mxGeometry relative="1" as="geometry" />
        </mxCell>
        <mxCell id="V8zk7Uhm2Ry-OCBPCCSQ-14" value="Convert euler tour to hamilton tour" style="whiteSpace=wrap;html=1;rounded=1;glass=0;strokeWidth=1;shadow=0;fillColor=#fff2cc;strokeColor=#d6b656;" vertex="1" parent="WIyWlLk6GJQsqaUBKTNV-1">
          <mxGeometry x="870" y="190" width="120" height="60" as="geometry" />
        </mxCell>
        <mxCell id="V8zk7Uhm2Ry-OCBPCCSQ-21" value="" style="edgeStyle=orthogonalEdgeStyle;rounded=0;orthogonalLoop=1;jettySize=auto;html=1;" edge="1" parent="WIyWlLk6GJQsqaUBKTNV-1" source="V8zk7Uhm2Ry-OCBPCCSQ-17" target="V8zk7Uhm2Ry-OCBPCCSQ-20">
          <mxGeometry relative="1" as="geometry">
            <Array as="points">
              <mxPoint x="610" y="320" />
              <mxPoint x="480" y="320" />
            </Array>
          </mxGeometry>
        </mxCell>
        <mxCell id="V8zk7Uhm2Ry-OCBPCCSQ-22" style="edgeStyle=orthogonalEdgeStyle;rounded=0;orthogonalLoop=1;jettySize=auto;html=1;entryX=0.5;entryY=0;entryDx=0;entryDy=0;" edge="1" parent="WIyWlLk6GJQsqaUBKTNV-1" source="V8zk7Uhm2Ry-OCBPCCSQ-17" target="WIyWlLk6GJQsqaUBKTNV-12">
          <mxGeometry relative="1" as="geometry">
            <Array as="points">
              <mxPoint x="610" y="320" />
              <mxPoint x="130" y="320" />
            </Array>
          </mxGeometry>
        </mxCell>
        <mxCell id="V8zk7Uhm2Ry-OCBPCCSQ-24" value="" style="edgeStyle=orthogonalEdgeStyle;rounded=0;orthogonalLoop=1;jettySize=auto;html=1;" edge="1" parent="WIyWlLk6GJQsqaUBKTNV-1" source="V8zk7Uhm2Ry-OCBPCCSQ-17" target="V8zk7Uhm2Ry-OCBPCCSQ-23">
          <mxGeometry relative="1" as="geometry">
            <Array as="points">
              <mxPoint x="610" y="320" />
              <mxPoint x="820" y="320" />
            </Array>
          </mxGeometry>
        </mxCell>
        <mxCell id="V8zk7Uhm2Ry-OCBPCCSQ-25" style="edgeStyle=orthogonalEdgeStyle;rounded=0;orthogonalLoop=1;jettySize=auto;html=1;" edge="1" parent="WIyWlLk6GJQsqaUBKTNV-1" source="V8zk7Uhm2Ry-OCBPCCSQ-17" target="V8zk7Uhm2Ry-OCBPCCSQ-26">
          <mxGeometry relative="1" as="geometry">
            <mxPoint x="770" y="510" as="targetPoint" />
            <Array as="points">
              <mxPoint x="610" y="320" />
              <mxPoint x="1151" y="320" />
            </Array>
          </mxGeometry>
        </mxCell>
        <mxCell id="V8zk7Uhm2Ry-OCBPCCSQ-27" style="edgeStyle=orthogonalEdgeStyle;rounded=0;orthogonalLoop=1;jettySize=auto;html=1;entryX=0.5;entryY=0;entryDx=0;entryDy=0;" edge="1" parent="WIyWlLk6GJQsqaUBKTNV-1" source="V8zk7Uhm2Ry-OCBPCCSQ-17" target="V8zk7Uhm2Ry-OCBPCCSQ-28">
          <mxGeometry relative="1" as="geometry">
            <mxPoint x="980" y="550" as="targetPoint" />
            <Array as="points">
              <mxPoint x="610" y="320" />
              <mxPoint x="1510" y="320" />
            </Array>
          </mxGeometry>
        </mxCell>
        <mxCell id="V8zk7Uhm2Ry-OCBPCCSQ-17" value="Shortest path obtained using Christofides Algorithm" style="whiteSpace=wrap;html=1;rounded=1;glass=0;strokeWidth=1;shadow=0;fillColor=#fff2cc;strokeColor=#d6b656;" vertex="1" parent="WIyWlLk6GJQsqaUBKTNV-1">
          <mxGeometry x="550" y="190" width="120" height="60" as="geometry" />
        </mxCell>
        <mxCell id="V8zk7Uhm2Ry-OCBPCCSQ-20" value="Three-opt Optimization" style="whiteSpace=wrap;html=1;rounded=1;glass=0;strokeWidth=1;shadow=0;fillColor=#d5e8d4;strokeColor=#82b366;" vertex="1" parent="WIyWlLk6GJQsqaUBKTNV-1">
          <mxGeometry x="430" y="370" width="120" height="60" as="geometry" />
        </mxCell>
        <mxCell id="V8zk7Uhm2Ry-OCBPCCSQ-23" value="Simulated Annealing" style="whiteSpace=wrap;html=1;rounded=1;glass=0;strokeWidth=1;shadow=0;fillColor=#d5e8d4;strokeColor=#82b366;" vertex="1" parent="WIyWlLk6GJQsqaUBKTNV-1">
          <mxGeometry x="760" y="370" width="120" height="60" as="geometry" />
        </mxCell>
        <mxCell id="V8zk7Uhm2Ry-OCBPCCSQ-26" value="Genetic Algorithm" style="whiteSpace=wrap;html=1;rounded=1;glass=0;strokeWidth=1;shadow=0;fillColor=#d5e8d4;strokeColor=#82b366;" vertex="1" parent="WIyWlLk6GJQsqaUBKTNV-1">
          <mxGeometry x="1100" y="370" width="120" height="60" as="geometry" />
        </mxCell>
        <mxCell id="V8zk7Uhm2Ry-OCBPCCSQ-28" value="Ant colony optimization" style="whiteSpace=wrap;html=1;rounded=1;glass=0;strokeWidth=1;shadow=0;fillColor=#d5e8d4;strokeColor=#82b366;" vertex="1" parent="WIyWlLk6GJQsqaUBKTNV-1">
          <mxGeometry x="1450" y="370" width="120" height="60" as="geometry" />
        </mxCell>
        <mxCell id="V8zk7Uhm2Ry-OCBPCCSQ-35" value="" style="edgeStyle=orthogonalEdgeStyle;rounded=0;orthogonalLoop=1;jettySize=auto;html=1;" edge="1" parent="WIyWlLk6GJQsqaUBKTNV-1" source="V8zk7Uhm2Ry-OCBPCCSQ-29" target="V8zk7Uhm2Ry-OCBPCCSQ-34">
          <mxGeometry relative="1" as="geometry" />
        </mxCell>
        <mxCell id="V8zk7Uhm2Ry-OCBPCCSQ-29" value="Initial tour obtained by christofides algorithm" style="rounded=1;whiteSpace=wrap;html=1;fontSize=12;glass=0;strokeWidth=1;shadow=0;fillColor=#e1d5e7;strokeColor=#9673a6;" vertex="1" parent="WIyWlLk6GJQsqaUBKTNV-1">
          <mxGeometry x="70" y="480" width="120" height="60" as="geometry" />
        </mxCell>
        <mxCell id="V8zk7Uhm2Ry-OCBPCCSQ-37" value="" style="edgeStyle=orthogonalEdgeStyle;rounded=0;orthogonalLoop=1;jettySize=auto;html=1;" edge="1" parent="WIyWlLk6GJQsqaUBKTNV-1" source="V8zk7Uhm2Ry-OCBPCCSQ-34" target="V8zk7Uhm2Ry-OCBPCCSQ-36">
          <mxGeometry relative="1" as="geometry" />
        </mxCell>
        <mxCell id="V8zk7Uhm2Ry-OCBPCCSQ-34" value="Remove two edges iteratively and reconnect them in a different way" style="whiteSpace=wrap;html=1;fillColor=#e1d5e7;strokeColor=#9673a6;rounded=1;glass=0;strokeWidth=1;shadow=0;" vertex="1" parent="WIyWlLk6GJQsqaUBKTNV-1">
          <mxGeometry x="50" y="610" width="160" height="80" as="geometry" />
        </mxCell>
        <mxCell id="V8zk7Uhm2Ry-OCBPCCSQ-39" value="" style="edgeStyle=orthogonalEdgeStyle;rounded=0;orthogonalLoop=1;jettySize=auto;html=1;" edge="1" parent="WIyWlLk6GJQsqaUBKTNV-1" source="V8zk7Uhm2Ry-OCBPCCSQ-36" target="V8zk7Uhm2Ry-OCBPCCSQ-38">
          <mxGeometry relative="1" as="geometry" />
        </mxCell>
        <mxCell id="V8zk7Uhm2Ry-OCBPCCSQ-36" value="Repeat the above step until the optimized tour is obtained" style="whiteSpace=wrap;html=1;fillColor=#e1d5e7;strokeColor=#9673a6;rounded=1;glass=0;strokeWidth=1;shadow=0;" vertex="1" parent="WIyWlLk6GJQsqaUBKTNV-1">
          <mxGeometry x="55" y="780" width="150" height="60" as="geometry" />
        </mxCell>
        <mxCell id="V8zk7Uhm2Ry-OCBPCCSQ-38" value="Return the optimized solution" style="whiteSpace=wrap;html=1;fillColor=#e1d5e7;strokeColor=#9673a6;rounded=1;glass=0;strokeWidth=1;shadow=0;" vertex="1" parent="WIyWlLk6GJQsqaUBKTNV-1">
          <mxGeometry x="70" y="920" width="120" height="60" as="geometry" />
        </mxCell>
        <mxCell id="V8zk7Uhm2Ry-OCBPCCSQ-40" value="" style="edgeStyle=orthogonalEdgeStyle;rounded=0;orthogonalLoop=1;jettySize=auto;html=1;" edge="1" parent="WIyWlLk6GJQsqaUBKTNV-1" source="V8zk7Uhm2Ry-OCBPCCSQ-41" target="V8zk7Uhm2Ry-OCBPCCSQ-43">
          <mxGeometry relative="1" as="geometry" />
        </mxCell>
        <mxCell id="V8zk7Uhm2Ry-OCBPCCSQ-41" value="Initial tour obtained by christofides algorithm" style="rounded=1;whiteSpace=wrap;html=1;fontSize=12;glass=0;strokeWidth=1;shadow=0;fillColor=#e1d5e7;strokeColor=#9673a6;" vertex="1" parent="WIyWlLk6GJQsqaUBKTNV-1">
          <mxGeometry x="430" y="480" width="120" height="60" as="geometry" />
        </mxCell>
        <mxCell id="V8zk7Uhm2Ry-OCBPCCSQ-42" value="" style="edgeStyle=orthogonalEdgeStyle;rounded=0;orthogonalLoop=1;jettySize=auto;html=1;" edge="1" parent="WIyWlLk6GJQsqaUBKTNV-1" source="V8zk7Uhm2Ry-OCBPCCSQ-43" target="V8zk7Uhm2Ry-OCBPCCSQ-45">
          <mxGeometry relative="1" as="geometry" />
        </mxCell>
        <mxCell id="V8zk7Uhm2Ry-OCBPCCSQ-43" value="Remove three edges iteratively and reconnect them in a different way" style="whiteSpace=wrap;html=1;fillColor=#e1d5e7;strokeColor=#9673a6;rounded=1;glass=0;strokeWidth=1;shadow=0;" vertex="1" parent="WIyWlLk6GJQsqaUBKTNV-1">
          <mxGeometry x="410" y="610" width="160" height="80" as="geometry" />
        </mxCell>
        <mxCell id="V8zk7Uhm2Ry-OCBPCCSQ-44" value="" style="edgeStyle=orthogonalEdgeStyle;rounded=0;orthogonalLoop=1;jettySize=auto;html=1;" edge="1" parent="WIyWlLk6GJQsqaUBKTNV-1" source="V8zk7Uhm2Ry-OCBPCCSQ-45" target="V8zk7Uhm2Ry-OCBPCCSQ-46">
          <mxGeometry relative="1" as="geometry" />
        </mxCell>
        <mxCell id="V8zk7Uhm2Ry-OCBPCCSQ-45" value="Repeat the above step until the optimized tour is obtained" style="whiteSpace=wrap;html=1;fillColor=#e1d5e7;strokeColor=#9673a6;rounded=1;glass=0;strokeWidth=1;shadow=0;" vertex="1" parent="WIyWlLk6GJQsqaUBKTNV-1">
          <mxGeometry x="415" y="780" width="150" height="60" as="geometry" />
        </mxCell>
        <mxCell id="V8zk7Uhm2Ry-OCBPCCSQ-46" value="Return the optimized solution" style="whiteSpace=wrap;html=1;fillColor=#e1d5e7;strokeColor=#9673a6;rounded=1;glass=0;strokeWidth=1;shadow=0;" vertex="1" parent="WIyWlLk6GJQsqaUBKTNV-1">
          <mxGeometry x="430" y="920" width="120" height="60" as="geometry" />
        </mxCell>
        <mxCell id="V8zk7Uhm2Ry-OCBPCCSQ-48" value="" style="edgeStyle=orthogonalEdgeStyle;rounded=0;orthogonalLoop=1;jettySize=auto;html=1;" edge="1" parent="WIyWlLk6GJQsqaUBKTNV-1" source="V8zk7Uhm2Ry-OCBPCCSQ-49" target="V8zk7Uhm2Ry-OCBPCCSQ-51">
          <mxGeometry relative="1" as="geometry" />
        </mxCell>
        <mxCell id="V8zk7Uhm2Ry-OCBPCCSQ-49" value="Define an initial temperature, a cooling schedule, and a stopping criterion" style="rounded=1;whiteSpace=wrap;html=1;fontSize=12;glass=0;strokeWidth=1;shadow=0;fillColor=#e1d5e7;strokeColor=#9673a6;" vertex="1" parent="WIyWlLk6GJQsqaUBKTNV-1">
          <mxGeometry x="760" y="480" width="120" height="60" as="geometry" />
        </mxCell>
        <mxCell id="V8zk7Uhm2Ry-OCBPCCSQ-50" value="" style="edgeStyle=orthogonalEdgeStyle;rounded=0;orthogonalLoop=1;jettySize=auto;html=1;" edge="1" parent="WIyWlLk6GJQsqaUBKTNV-1" source="V8zk7Uhm2Ry-OCBPCCSQ-51" target="V8zk7Uhm2Ry-OCBPCCSQ-53">
          <mxGeometry relative="1" as="geometry" />
        </mxCell>
        <mxCell id="V8zk7Uhm2Ry-OCBPCCSQ-51" value="For each iteration, randomly select two cities and swap their positions in the current tour to obtain a new tour" style="whiteSpace=wrap;html=1;fillColor=#e1d5e7;strokeColor=#9673a6;rounded=1;glass=0;strokeWidth=1;shadow=0;" vertex="1" parent="WIyWlLk6GJQsqaUBKTNV-1">
          <mxGeometry x="740" y="610" width="160" height="80" as="geometry" />
        </mxCell>
        <mxCell id="V8zk7Uhm2Ry-OCBPCCSQ-56" value="" style="edgeStyle=orthogonalEdgeStyle;rounded=0;orthogonalLoop=1;jettySize=auto;html=1;" edge="1" parent="WIyWlLk6GJQsqaUBKTNV-1" source="V8zk7Uhm2Ry-OCBPCCSQ-53" target="V8zk7Uhm2Ry-OCBPCCSQ-55">
          <mxGeometry relative="1" as="geometry" />
        </mxCell>
        <mxCell id="V8zk7Uhm2Ry-OCBPCCSQ-53" value="Calculate the cost difference between the new tour and the current tour" style="whiteSpace=wrap;html=1;fillColor=#e1d5e7;strokeColor=#9673a6;rounded=1;glass=0;strokeWidth=1;shadow=0;" vertex="1" parent="WIyWlLk6GJQsqaUBKTNV-1">
          <mxGeometry x="745" y="780" width="150" height="60" as="geometry" />
        </mxCell>
        <mxCell id="V8zk7Uhm2Ry-OCBPCCSQ-58" value="" style="edgeStyle=orthogonalEdgeStyle;rounded=0;orthogonalLoop=1;jettySize=auto;html=1;" edge="1" parent="WIyWlLk6GJQsqaUBKTNV-1" source="V8zk7Uhm2Ry-OCBPCCSQ-55" target="V8zk7Uhm2Ry-OCBPCCSQ-57">
          <mxGeometry relative="1" as="geometry">
            <Array as="points">
              <mxPoint x="1035" y="830" />
              <mxPoint x="980" y="830" />
            </Array>
          </mxGeometry>
        </mxCell>
        <mxCell id="V8zk7Uhm2Ry-OCBPCCSQ-61" value="" style="edgeStyle=orthogonalEdgeStyle;rounded=0;orthogonalLoop=1;jettySize=auto;html=1;exitX=1;exitY=0.5;exitDx=0;exitDy=0;" edge="1" parent="WIyWlLk6GJQsqaUBKTNV-1" source="V8zk7Uhm2Ry-OCBPCCSQ-55" target="V8zk7Uhm2Ry-OCBPCCSQ-60">
          <mxGeometry relative="1" as="geometry">
            <Array as="points">
              <mxPoint x="1140" y="790" />
              <mxPoint x="1220" y="790" />
            </Array>
          </mxGeometry>
        </mxCell>
        <mxCell id="V8zk7Uhm2Ry-OCBPCCSQ-55" value="If the cost difference is &lt;br&gt;negative (i.e., the new tour is better), &lt;br&gt;accept the new tour &lt;br&gt;as the current solution" style="rhombus;whiteSpace=wrap;html=1;fillColor=#e1d5e7;strokeColor=#9673a6;rounded=1;glass=0;strokeWidth=1;shadow=0;" vertex="1" parent="WIyWlLk6GJQsqaUBKTNV-1">
          <mxGeometry x="950" y="620" width="190" height="180" as="geometry" />
        </mxCell>
        <mxCell id="V8zk7Uhm2Ry-OCBPCCSQ-73" style="edgeStyle=orthogonalEdgeStyle;rounded=0;orthogonalLoop=1;jettySize=auto;html=1;entryX=0.5;entryY=0;entryDx=0;entryDy=0;" edge="1" parent="WIyWlLk6GJQsqaUBKTNV-1" source="V8zk7Uhm2Ry-OCBPCCSQ-57" target="V8zk7Uhm2Ry-OCBPCCSQ-65">
          <mxGeometry relative="1" as="geometry">
            <Array as="points">
              <mxPoint x="1100" y="870" />
            </Array>
          </mxGeometry>
        </mxCell>
        <mxCell id="V8zk7Uhm2Ry-OCBPCCSQ-57" value="Accept new tour" style="whiteSpace=wrap;html=1;fillColor=#e1d5e7;strokeColor=#9673a6;rounded=1;glass=0;strokeWidth=1;shadow=0;" vertex="1" parent="WIyWlLk6GJQsqaUBKTNV-1">
          <mxGeometry x="920" y="840" width="120" height="60" as="geometry" />
        </mxCell>
        <mxCell id="V8zk7Uhm2Ry-OCBPCCSQ-59" value="Cost difference negative" style="text;html=1;strokeColor=none;fillColor=none;align=center;verticalAlign=middle;whiteSpace=wrap;rounded=0;" vertex="1" parent="WIyWlLk6GJQsqaUBKTNV-1">
          <mxGeometry x="970" y="795" width="60" height="30" as="geometry" />
        </mxCell>
        <mxCell id="V8zk7Uhm2Ry-OCBPCCSQ-74" style="edgeStyle=orthogonalEdgeStyle;rounded=0;orthogonalLoop=1;jettySize=auto;html=1;entryX=0.5;entryY=0;entryDx=0;entryDy=0;" edge="1" parent="WIyWlLk6GJQsqaUBKTNV-1" source="V8zk7Uhm2Ry-OCBPCCSQ-60" target="V8zk7Uhm2Ry-OCBPCCSQ-65">
          <mxGeometry relative="1" as="geometry">
            <Array as="points">
              <mxPoint x="1100" y="870" />
              <mxPoint x="1100" y="1020" />
            </Array>
          </mxGeometry>
        </mxCell>
        <mxCell id="V8zk7Uhm2Ry-OCBPCCSQ-60" value="Old tour" style="whiteSpace=wrap;html=1;fillColor=#e1d5e7;strokeColor=#9673a6;rounded=1;glass=0;strokeWidth=1;shadow=0;" vertex="1" parent="WIyWlLk6GJQsqaUBKTNV-1">
          <mxGeometry x="1150" y="840" width="120" height="60" as="geometry" />
        </mxCell>
        <mxCell id="V8zk7Uhm2Ry-OCBPCCSQ-67" value="" style="edgeStyle=orthogonalEdgeStyle;rounded=0;orthogonalLoop=1;jettySize=auto;html=1;exitX=0.5;exitY=1;exitDx=0;exitDy=0;" edge="1" parent="WIyWlLk6GJQsqaUBKTNV-1" source="V8zk7Uhm2Ry-OCBPCCSQ-65" target="V8zk7Uhm2Ry-OCBPCCSQ-66">
          <mxGeometry relative="1" as="geometry" />
        </mxCell>
        <mxCell id="V8zk7Uhm2Ry-OCBPCCSQ-65" value="Decrease temperature according to cooling schedule" style="whiteSpace=wrap;html=1;fillColor=#e1d5e7;strokeColor=#9673a6;rounded=1;glass=0;strokeWidth=1;shadow=0;" vertex="1" parent="WIyWlLk6GJQsqaUBKTNV-1">
          <mxGeometry x="1040" y="940" width="120" height="60" as="geometry" />
        </mxCell>
        <mxCell id="V8zk7Uhm2Ry-OCBPCCSQ-69" value="" style="edgeStyle=orthogonalEdgeStyle;rounded=0;orthogonalLoop=1;jettySize=auto;html=1;" edge="1" parent="WIyWlLk6GJQsqaUBKTNV-1" source="V8zk7Uhm2Ry-OCBPCCSQ-66" target="V8zk7Uhm2Ry-OCBPCCSQ-68">
          <mxGeometry relative="1" as="geometry" />
        </mxCell>
        <mxCell id="V8zk7Uhm2Ry-OCBPCCSQ-66" value="Repeat steps from iteration to cooling schedule" style="whiteSpace=wrap;html=1;fillColor=#e1d5e7;strokeColor=#9673a6;rounded=1;glass=0;strokeWidth=1;shadow=0;" vertex="1" parent="WIyWlLk6GJQsqaUBKTNV-1">
          <mxGeometry x="1040" y="1020" width="120" height="60" as="geometry" />
        </mxCell>
        <mxCell id="V8zk7Uhm2Ry-OCBPCCSQ-68" value="Return the final solution" style="whiteSpace=wrap;html=1;fillColor=#e1d5e7;strokeColor=#9673a6;rounded=1;glass=0;strokeWidth=1;shadow=0;" vertex="1" parent="WIyWlLk6GJQsqaUBKTNV-1">
          <mxGeometry x="1040" y="1109" width="120" height="60" as="geometry" />
        </mxCell>
        <mxCell id="V8zk7Uhm2Ry-OCBPCCSQ-84" value="" style="edgeStyle=orthogonalEdgeStyle;rounded=0;orthogonalLoop=1;jettySize=auto;html=1;" edge="1" parent="WIyWlLk6GJQsqaUBKTNV-1" source="V8zk7Uhm2Ry-OCBPCCSQ-85" target="V8zk7Uhm2Ry-OCBPCCSQ-87">
          <mxGeometry relative="1" as="geometry" />
        </mxCell>
        <mxCell id="V8zk7Uhm2Ry-OCBPCCSQ-85" value="Define a population size, a mutation rate, a crossover rate, and a stopping criterion" style="rounded=1;whiteSpace=wrap;html=1;fontSize=12;glass=0;strokeWidth=1;shadow=0;fillColor=#e1d5e7;strokeColor=#9673a6;" vertex="1" parent="WIyWlLk6GJQsqaUBKTNV-1">
          <mxGeometry x="1460" y="490" width="120" height="60" as="geometry" />
        </mxCell>
        <mxCell id="V8zk7Uhm2Ry-OCBPCCSQ-86" value="" style="edgeStyle=orthogonalEdgeStyle;rounded=0;orthogonalLoop=1;jettySize=auto;html=1;" edge="1" parent="WIyWlLk6GJQsqaUBKTNV-1" source="V8zk7Uhm2Ry-OCBPCCSQ-87" target="V8zk7Uhm2Ry-OCBPCCSQ-89">
          <mxGeometry relative="1" as="geometry" />
        </mxCell>
        <mxCell id="V8zk7Uhm2Ry-OCBPCCSQ-87" value="Generate an initial population of tours, which can be random or generated from the initial tour using a heuristic" style="whiteSpace=wrap;html=1;fillColor=#e1d5e7;strokeColor=#9673a6;rounded=1;glass=0;strokeWidth=1;shadow=0;" vertex="1" parent="WIyWlLk6GJQsqaUBKTNV-1">
          <mxGeometry x="1440" y="620" width="160" height="80" as="geometry" />
        </mxCell>
        <mxCell id="V8zk7Uhm2Ry-OCBPCCSQ-106" value="" style="edgeStyle=orthogonalEdgeStyle;rounded=0;orthogonalLoop=1;jettySize=auto;html=1;" edge="1" parent="WIyWlLk6GJQsqaUBKTNV-1" source="V8zk7Uhm2Ry-OCBPCCSQ-89" target="V8zk7Uhm2Ry-OCBPCCSQ-105">
          <mxGeometry relative="1" as="geometry" />
        </mxCell>
        <mxCell id="V8zk7Uhm2Ry-OCBPCCSQ-89" value="Evaluate the fitness of each tour in the population, which is typically defined as the inverse of the tour length" style="whiteSpace=wrap;html=1;fillColor=#e1d5e7;strokeColor=#9673a6;rounded=1;glass=0;strokeWidth=1;shadow=0;" vertex="1" parent="WIyWlLk6GJQsqaUBKTNV-1">
          <mxGeometry x="1445" y="780" width="150" height="90" as="geometry" />
        </mxCell>
        <mxCell id="V8zk7Uhm2Ry-OCBPCCSQ-109" value="" style="edgeStyle=orthogonalEdgeStyle;rounded=0;orthogonalLoop=1;jettySize=auto;html=1;" edge="1" parent="WIyWlLk6GJQsqaUBKTNV-1" source="V8zk7Uhm2Ry-OCBPCCSQ-105" target="V8zk7Uhm2Ry-OCBPCCSQ-108">
          <mxGeometry relative="1" as="geometry" />
        </mxCell>
        <mxCell id="V8zk7Uhm2Ry-OCBPCCSQ-105" value="Select a subset of the population to be parents for the next generation, using a selection method such as tournament selection or roulette wheel selection" style="whiteSpace=wrap;html=1;fillColor=#e1d5e7;strokeColor=#9673a6;rounded=1;glass=0;strokeWidth=1;shadow=0;" vertex="1" parent="WIyWlLk6GJQsqaUBKTNV-1">
          <mxGeometry x="1460" y="920" width="120" height="150" as="geometry" />
        </mxCell>
        <mxCell id="V8zk7Uhm2Ry-OCBPCCSQ-111" value="" style="edgeStyle=orthogonalEdgeStyle;rounded=0;orthogonalLoop=1;jettySize=auto;html=1;" edge="1" parent="WIyWlLk6GJQsqaUBKTNV-1" source="V8zk7Uhm2Ry-OCBPCCSQ-108" target="V8zk7Uhm2Ry-OCBPCCSQ-110">
          <mxGeometry relative="1" as="geometry" />
        </mxCell>
        <mxCell id="V8zk7Uhm2Ry-OCBPCCSQ-108" value="Apply crossover and mutation operators to the parents to create new offspring for the next generation" style="whiteSpace=wrap;html=1;fillColor=#e1d5e7;strokeColor=#9673a6;rounded=1;glass=0;strokeWidth=1;shadow=0;" vertex="1" parent="WIyWlLk6GJQsqaUBKTNV-1">
          <mxGeometry x="1640" y="932.5" width="120" height="125" as="geometry" />
        </mxCell>
        <mxCell id="V8zk7Uhm2Ry-OCBPCCSQ-113" value="" style="edgeStyle=orthogonalEdgeStyle;rounded=0;orthogonalLoop=1;jettySize=auto;html=1;" edge="1" parent="WIyWlLk6GJQsqaUBKTNV-1" source="V8zk7Uhm2Ry-OCBPCCSQ-110" target="V8zk7Uhm2Ry-OCBPCCSQ-112">
          <mxGeometry relative="1" as="geometry" />
        </mxCell>
        <mxCell id="V8zk7Uhm2Ry-OCBPCCSQ-110" value="Evaluate the fitness of the offspring and add them to the population" style="whiteSpace=wrap;html=1;fillColor=#e1d5e7;strokeColor=#9673a6;rounded=1;glass=0;strokeWidth=1;shadow=0;" vertex="1" parent="WIyWlLk6GJQsqaUBKTNV-1">
          <mxGeometry x="1810" y="947.5" width="120" height="95" as="geometry" />
        </mxCell>
        <mxCell id="V8zk7Uhm2Ry-OCBPCCSQ-115" value="" style="edgeStyle=orthogonalEdgeStyle;rounded=0;orthogonalLoop=1;jettySize=auto;html=1;" edge="1" parent="WIyWlLk6GJQsqaUBKTNV-1" source="V8zk7Uhm2Ry-OCBPCCSQ-112" target="V8zk7Uhm2Ry-OCBPCCSQ-114">
          <mxGeometry relative="1" as="geometry">
            <Array as="points">
              <mxPoint x="2067" y="1170" />
            </Array>
          </mxGeometry>
        </mxCell>
        <mxCell id="V8zk7Uhm2Ry-OCBPCCSQ-112" value="Replace some of the least fit individuals in the population with the new offspring, using a replacement method such as generational replacement or steady-state replacement" style="whiteSpace=wrap;html=1;fillColor=#e1d5e7;strokeColor=#9673a6;rounded=1;glass=0;strokeWidth=1;shadow=0;" vertex="1" parent="WIyWlLk6GJQsqaUBKTNV-1">
          <mxGeometry x="2007" y="912.5" width="120" height="165" as="geometry" />
        </mxCell>
        <mxCell id="V8zk7Uhm2Ry-OCBPCCSQ-117" value="" style="edgeStyle=orthogonalEdgeStyle;rounded=0;orthogonalLoop=1;jettySize=auto;html=1;" edge="1" parent="WIyWlLk6GJQsqaUBKTNV-1" source="V8zk7Uhm2Ry-OCBPCCSQ-114" target="V8zk7Uhm2Ry-OCBPCCSQ-116">
          <mxGeometry relative="1" as="geometry" />
        </mxCell>
        <mxCell id="V8zk7Uhm2Ry-OCBPCCSQ-114" value="Repeat steps from Select a subset to replace a least fit individuals" style="whiteSpace=wrap;html=1;fillColor=#e1d5e7;strokeColor=#9673a6;rounded=1;glass=0;strokeWidth=1;shadow=0;" vertex="1" parent="WIyWlLk6GJQsqaUBKTNV-1">
          <mxGeometry x="1680" y="1120" width="120" height="90" as="geometry" />
        </mxCell>
        <mxCell id="V8zk7Uhm2Ry-OCBPCCSQ-116" value="Return the fittest individual in the final population as the solution" style="whiteSpace=wrap;html=1;fillColor=#e1d5e7;strokeColor=#9673a6;rounded=1;glass=0;strokeWidth=1;shadow=0;" vertex="1" parent="WIyWlLk6GJQsqaUBKTNV-1">
          <mxGeometry x="1460" y="1127.5" width="120" height="75" as="geometry" />
        </mxCell>
        <mxCell id="V8zk7Uhm2Ry-OCBPCCSQ-135" value="" style="edgeStyle=orthogonalEdgeStyle;rounded=0;orthogonalLoop=1;jettySize=auto;html=1;" edge="1" parent="WIyWlLk6GJQsqaUBKTNV-1" source="V8zk7Uhm2Ry-OCBPCCSQ-136" target="V8zk7Uhm2Ry-OCBPCCSQ-138">
          <mxGeometry relative="1" as="geometry" />
        </mxCell>
        <mxCell id="V8zk7Uhm2Ry-OCBPCCSQ-136" value="Define the parameters for the ant colony optimization algorithm, such as the number of ants, the pheromone evaporation rate, the pheromone deposit rate, and the exploration-exploitation trade-off" style="rounded=1;whiteSpace=wrap;html=1;fontSize=12;glass=0;strokeWidth=1;shadow=0;fillColor=#e1d5e7;strokeColor=#9673a6;" vertex="1" parent="WIyWlLk6GJQsqaUBKTNV-1">
          <mxGeometry x="2285" y="350" width="170" height="190" as="geometry" />
        </mxCell>
        <mxCell id="V8zk7Uhm2Ry-OCBPCCSQ-137" value="" style="edgeStyle=orthogonalEdgeStyle;rounded=0;orthogonalLoop=1;jettySize=auto;html=1;" edge="1" parent="WIyWlLk6GJQsqaUBKTNV-1" source="V8zk7Uhm2Ry-OCBPCCSQ-138" target="V8zk7Uhm2Ry-OCBPCCSQ-140">
          <mxGeometry relative="1" as="geometry" />
        </mxCell>
        <mxCell id="V8zk7Uhm2Ry-OCBPCCSQ-138" value="Initialize the pheromone trails for each edge in the graph" style="whiteSpace=wrap;html=1;fillColor=#e1d5e7;strokeColor=#9673a6;rounded=1;glass=0;strokeWidth=1;shadow=0;" vertex="1" parent="WIyWlLk6GJQsqaUBKTNV-1">
          <mxGeometry x="2290" y="600" width="160" height="80" as="geometry" />
        </mxCell>
        <mxCell id="V8zk7Uhm2Ry-OCBPCCSQ-139" value="" style="edgeStyle=orthogonalEdgeStyle;rounded=0;orthogonalLoop=1;jettySize=auto;html=1;" edge="1" parent="WIyWlLk6GJQsqaUBKTNV-1" source="V8zk7Uhm2Ry-OCBPCCSQ-140" target="V8zk7Uhm2Ry-OCBPCCSQ-142">
          <mxGeometry relative="1" as="geometry" />
        </mxCell>
        <mxCell id="V8zk7Uhm2Ry-OCBPCCSQ-140" value="or each iteration, let each ant construct a tour by choosing the next city based on a combination of pheromone trail and heuristic information, such as the distance" style="whiteSpace=wrap;html=1;fillColor=#e1d5e7;strokeColor=#9673a6;rounded=1;glass=0;strokeWidth=1;shadow=0;" vertex="1" parent="WIyWlLk6GJQsqaUBKTNV-1">
          <mxGeometry x="2295" y="740" width="150" height="120" as="geometry" />
        </mxCell>
        <mxCell id="V8zk7Uhm2Ry-OCBPCCSQ-153" value="" style="edgeStyle=orthogonalEdgeStyle;rounded=0;orthogonalLoop=1;jettySize=auto;html=1;" edge="1" parent="WIyWlLk6GJQsqaUBKTNV-1" source="V8zk7Uhm2Ry-OCBPCCSQ-142" target="V8zk7Uhm2Ry-OCBPCCSQ-152">
          <mxGeometry relative="1" as="geometry" />
        </mxCell>
        <mxCell id="V8zk7Uhm2Ry-OCBPCCSQ-142" value="Update the pheromone trails based on the quality of the tours constructed by the ants, using a pheromone update rule that increases the pheromone trail for the edges in good tours and decreases it for the edges in bad tours" style="whiteSpace=wrap;html=1;fillColor=#e1d5e7;strokeColor=#9673a6;rounded=1;glass=0;strokeWidth=1;shadow=0;" vertex="1" parent="WIyWlLk6GJQsqaUBKTNV-1">
          <mxGeometry x="2580" y="700" width="120" height="200" as="geometry" />
        </mxCell>
        <mxCell id="V8zk7Uhm2Ry-OCBPCCSQ-155" value="" style="edgeStyle=orthogonalEdgeStyle;rounded=0;orthogonalLoop=1;jettySize=auto;html=1;" edge="1" parent="WIyWlLk6GJQsqaUBKTNV-1" source="V8zk7Uhm2Ry-OCBPCCSQ-152" target="V8zk7Uhm2Ry-OCBPCCSQ-154">
          <mxGeometry relative="1" as="geometry" />
        </mxCell>
        <mxCell id="V8zk7Uhm2Ry-OCBPCCSQ-152" value="Repeat the above two steps until a stopping criterian is reached" style="whiteSpace=wrap;html=1;fillColor=#e1d5e7;strokeColor=#9673a6;rounded=1;glass=0;strokeWidth=1;shadow=0;" vertex="1" parent="WIyWlLk6GJQsqaUBKTNV-1">
          <mxGeometry x="2580" y="947.5" width="120" height="60" as="geometry" />
        </mxCell>
        <mxCell id="V8zk7Uhm2Ry-OCBPCCSQ-154" value="Return the best tour found by the ants as the solution" style="whiteSpace=wrap;html=1;fillColor=#e1d5e7;strokeColor=#9673a6;rounded=1;glass=0;strokeWidth=1;shadow=0;" vertex="1" parent="WIyWlLk6GJQsqaUBKTNV-1">
          <mxGeometry x="2310" y="947.5" width="120" height="60" as="geometry" />
        </mxCell>
      </root>
    </mxGraphModel>
  </diagram>
</mxfile>
